<svg width="300" height="84" viewBox="0 0 300 84" fill="none" xmlns="http://www.w3.org/2000/svg">
<path d="M67.5941 8.54551V34.0001H62.2124V8.54551H67.5941ZM85.8305 15.8662C85.7311 14.8636 85.3044 14.0847 84.5503 13.5295C83.7963 12.9744 82.773 12.6968 81.4804 12.6968C80.6021 12.6968 79.8605 12.8211 79.2556 13.0697C78.6507 13.31 78.1867 13.6455 77.8635 14.0764C77.5487 14.5073 77.3912 14.9962 77.3912 15.543C77.3747 15.9988 77.47 16.3965 77.6771 16.7362C77.8925 17.0759 78.1867 17.3701 78.5596 17.6187C78.9324 17.859 79.3633 18.0703 79.8522 18.2525C80.3411 18.4266 80.8631 18.5757 81.4182 18.7L83.7052 19.2469C84.8155 19.4954 85.8347 19.8269 86.7627 20.2412C87.6907 20.6555 88.4945 21.1651 89.1739 21.7699C89.8534 22.3748 90.3795 23.0874 90.7524 23.9077C91.1335 24.728 91.3283 25.6685 91.3366 26.7291C91.3283 28.2869 90.9305 29.6375 90.1434 30.781C89.3645 31.9161 88.2376 32.7986 86.7627 33.4283C85.2961 34.0498 83.527 34.3605 81.4555 34.3605C79.4006 34.3605 77.6108 34.0456 76.0862 33.4159C74.5699 32.7862 73.385 31.854 72.5315 30.6194C71.6863 29.3765 71.243 27.8394 71.2016 26.0082H76.4094C76.4674 26.8617 76.7118 27.5743 77.1427 28.146C77.5818 28.7095 78.166 29.1362 78.8951 29.4262C79.6326 29.7079 80.4653 29.8488 81.3934 29.8488C82.3048 29.8488 83.0961 29.7162 83.7673 29.4511C84.4468 29.1859 84.9729 28.8172 85.3458 28.3449C85.7187 27.8726 85.9051 27.3298 85.9051 26.7167C85.9051 26.1449 85.7352 25.6644 85.3955 25.2749C85.0641 24.8855 84.5752 24.554 83.9289 24.2806C83.2909 24.0072 82.5078 23.7586 81.5798 23.5349L78.8081 22.8388C76.6621 22.3168 74.9676 21.5007 73.7247 20.3903C72.4818 19.28 71.8645 17.7844 71.8728 15.9035C71.8645 14.3623 72.2746 13.0158 73.1032 11.8641C73.9401 10.7123 75.0877 9.81327 76.5461 9.16696C78.0044 8.52066 79.6616 8.1975 81.5177 8.1975C83.4069 8.1975 85.0558 8.52066 86.4644 9.16696C87.8813 9.81327 88.9833 10.7123 89.7705 11.8641C90.5577 13.0158 90.9637 14.3498 90.9885 15.8662H85.8305ZM94.9565 34.0001V8.54551H112.108V12.9827H100.338V19.048H111.226V23.4851H100.338V29.5629H112.158V34.0001H94.9565ZM116.387 34.0001V8.54551H126.43C128.36 8.54551 130.005 8.91424 131.364 9.65169C132.723 10.3809 133.759 11.3959 134.471 12.6968C135.192 13.9894 135.553 15.4809 135.553 17.1712C135.553 18.8616 135.188 20.353 134.459 21.6457C133.73 22.9383 132.673 23.945 131.289 24.6659C129.914 25.3868 128.249 25.7472 126.293 25.7472H119.892V21.4344H125.423C126.459 21.4344 127.312 21.2562 127.983 20.8999C128.663 20.5353 129.168 20.034 129.5 19.396C129.839 18.7497 130.009 18.0081 130.009 17.1712C130.009 16.3261 129.839 15.5886 129.5 14.9589C129.168 14.3208 128.663 13.8278 127.983 13.4798C127.304 13.1235 126.442 12.9454 125.398 12.9454H121.769V34.0001H116.387ZM62.2124 76.0001V50.5455H67.5941V71.5629H78.5067V76.0001H62.2124ZM104.471 63.2728C104.471 66.0486 103.945 68.4101 102.892 70.3573C101.848 72.3045 100.423 73.7918 98.6168 74.8193C96.8188 75.8385 94.797 76.3481 92.5515 76.3481C90.2894 76.3481 88.2593 75.8343 86.4613 74.8069C84.6632 73.7794 83.2422 72.2921 82.1981 70.3449C81.1541 68.3977 80.6321 66.0403 80.6321 63.2728C80.6321 60.497 81.1541 58.1355 82.1981 56.1883C83.2422 54.2411 84.6632 52.7579 86.4613 51.7387C88.2593 50.7112 90.2894 50.1975 92.5515 50.1975C94.797 50.1975 96.8188 50.7112 98.6168 51.7387C100.423 52.7579 101.848 54.2411 102.892 56.1883C103.945 58.1355 104.471 60.497 104.471 63.2728ZM99.0146 63.2728C99.0146 61.4747 98.7453 59.9584 98.2067 58.7238C97.6764 57.4892 96.9265 56.5529 95.957 55.9148C94.9876 55.2768 93.8524 54.9578 92.5515 54.9578C91.2506 54.9578 90.1154 55.2768 89.1459 55.9148C88.1765 56.5529 87.4225 57.4892 86.8839 58.7238C86.3536 59.9584 86.0884 61.4747 86.0884 63.2728C86.0884 65.0708 86.3536 66.5872 86.8839 67.8218C87.4225 69.0564 88.1765 69.9927 89.1459 70.6307C90.1154 71.2688 91.2506 71.5878 92.5515 71.5878C93.8524 71.5878 94.9876 71.2688 95.957 70.6307C96.9265 69.9927 97.6764 69.0564 98.2067 67.8218C98.7453 66.5872 99.0146 65.0708 99.0146 63.2728ZM125.336 58.7735C125.162 58.1686 124.918 57.6342 124.603 57.1702C124.288 56.6979 123.903 56.3001 123.447 55.977C122.999 55.6455 122.486 55.3928 121.906 55.2188C121.334 55.0448 120.7 54.9578 120.004 54.9578C118.703 54.9578 117.56 55.281 116.574 55.9273C115.596 56.5736 114.834 57.514 114.287 58.7486C113.74 59.975 113.466 61.4747 113.466 63.2479C113.466 65.0211 113.736 66.5292 114.274 67.7721C114.813 69.015 115.575 69.9637 116.561 70.6183C117.547 71.2646 118.711 71.5878 120.054 71.5878C121.272 71.5878 122.312 71.3723 123.173 70.9415C124.043 70.5023 124.706 69.885 125.162 69.0895C125.626 68.2941 125.858 67.3536 125.858 66.2682L126.952 66.4297H120.389V62.3779H131.041V65.5846C131.041 67.8218 130.569 69.7441 129.624 71.3516C128.679 72.9508 127.379 74.1854 125.721 75.0555C124.064 75.9172 122.167 76.3481 120.029 76.3481C117.642 76.3481 115.546 75.8219 113.74 74.7696C111.933 73.709 110.525 72.2051 109.514 70.2579C108.511 68.3024 108.01 65.9823 108.01 63.2976C108.01 61.2344 108.308 59.3949 108.905 57.7792C109.51 56.1551 110.355 54.7797 111.44 53.6528C112.526 52.5259 113.789 51.6683 115.231 51.08C116.673 50.4917 118.235 50.1975 119.917 50.1975C121.359 50.1975 122.701 50.4088 123.944 50.8314C125.187 51.2457 126.289 51.834 127.25 52.5963C128.22 53.3586 129.011 54.2659 129.624 55.3182C130.237 56.3623 130.631 57.514 130.805 58.7735H125.336ZM135.083 76.0001V50.5455H152.235V54.9827H140.465V61.048H151.353V65.4851H140.465V71.5629H152.285V76.0001H135.083ZM156.514 50.5455H163.151L170.161 67.6478H170.459L177.469 50.5455H184.106V76.0001H178.886V59.4322H178.675L172.088 75.8758H168.533L161.946 59.3701H161.734V76.0001H156.514V50.5455ZM188.54 76.0001V50.5455H205.692V54.9827H193.922V61.048H204.81V65.4851H193.922V71.5629H205.742V76.0001H188.54ZM231.262 50.5455V76.0001H226.614L215.539 59.9791H215.353V76.0001H209.971V50.5455H214.694L225.681 66.554H225.905V50.5455H231.262ZM234.739 54.9827V50.5455H255.645V54.9827H247.852V76.0001H242.532V54.9827H234.739Z" fill="black"/>
<path d="M25 42.0001C26.1458 42.0001 27.1267 41.5921 27.9427 40.7761C28.7587 39.9602 29.1667 38.9792 29.1667 37.8334C29.1667 36.6876 28.7587 35.7067 27.9427 34.8907C27.1267 34.0747 26.1458 33.6667 25 33.6667C23.8542 33.6667 22.8733 34.0747 22.0573 34.8907C21.2413 35.7067 20.8333 36.6876 20.8333 37.8334C20.8333 38.9792 21.2413 39.9602 22.0573 40.7761C22.8733 41.5921 23.8542 42.0001 25 42.0001ZM25 57.3126C29.2361 53.4237 32.3785 49.8907 34.4271 46.7136C36.4757 43.5365 37.5 40.7154 37.5 38.2501C37.5 34.4654 36.2934 31.3664 33.8802 28.9532C31.467 26.54 28.5069 25.3334 25 25.3334C21.4931 25.3334 18.533 26.54 16.1198 28.9532C13.7066 31.3664 12.5 34.4654 12.5 38.2501C12.5 40.7154 13.5243 43.5365 15.5729 46.7136C17.6215 49.8907 20.7639 53.4237 25 57.3126ZM25 62.8334C19.4097 58.0765 15.2344 53.6581 12.474 49.5782C9.71354 45.4983 8.33334 41.7223 8.33334 38.2501C8.33334 33.0417 10.0087 28.8924 13.3594 25.8022C16.7101 22.7119 20.5903 21.1667 25 21.1667C29.4097 21.1667 33.2899 22.7119 36.6406 25.8022C39.9913 28.8924 41.6667 33.0417 41.6667 38.2501C41.6667 41.7223 40.2865 45.4983 37.526 49.5782C34.7656 53.6581 30.5903 58.0765 25 62.8334Z" fill="black"/>
</svg>
