<svg width="118" height="34" viewBox="0 0 118 34" fill="none" xmlns="http://www.w3.org/2000/svg">
<path d="M35.0376 3.81818V14H32.8849V3.81818H35.0376ZM42.3322 6.74645C42.2924 6.34541 42.1217 6.03385 41.8201 5.81179C41.5185 5.58972 41.1092 5.47869 40.5922 5.47869C40.2408 5.47869 39.9442 5.52841 39.7022 5.62784C39.4603 5.72396 39.2747 5.85819 39.1454 6.03054C39.0195 6.20289 38.9565 6.39844 38.9565 6.61719C38.9499 6.79948 38.988 6.95857 39.0708 7.09446C39.157 7.23035 39.2747 7.34801 39.4238 7.44744C39.573 7.54356 39.7453 7.62808 39.9409 7.70099C40.1364 7.7706 40.3452 7.83026 40.5673 7.87997L41.4821 8.09872C41.9262 8.19815 42.3339 8.33073 42.7051 8.49645C43.0763 8.66217 43.3978 8.866 43.6696 9.10795C43.9413 9.34991 44.1518 9.63494 44.301 9.96307C44.4534 10.2912 44.5313 10.6674 44.5346 11.0916C44.5313 11.7147 44.3722 12.255 44.0574 12.7124C43.7458 13.1664 43.295 13.5194 42.7051 13.7713C42.1184 14.0199 41.4108 14.1442 40.5822 14.1442C39.7602 14.1442 39.0443 14.0182 38.4345 13.7663C37.8279 13.5144 37.354 13.1416 37.0126 12.6477C36.6745 12.1506 36.4972 11.5357 36.4806 10.8033H38.5637C38.5869 11.1446 38.6847 11.4297 38.8571 11.6584C39.0327 11.8838 39.2664 12.0545 39.5581 12.1705C39.853 12.2831 40.1861 12.3395 40.5574 12.3395C40.9219 12.3395 41.2385 12.2865 41.5069 12.1804C41.7787 12.0743 41.9892 11.9268 42.1383 11.7379C42.2875 11.549 42.362 11.3319 42.362 11.0866C42.362 10.858 42.2941 10.6657 42.1582 10.5099C42.0256 10.3542 41.8301 10.2216 41.5716 10.1122C41.3163 10.0028 41.0031 9.90341 40.6319 9.81392L39.5233 9.53551C38.6648 9.3267 37.987 9.00024 37.4899 8.55611C36.9927 8.11198 36.7458 7.51373 36.7491 6.76136C36.7458 6.14489 36.9099 5.6063 37.2413 5.1456C37.5761 4.6849 38.0351 4.32528 38.6184 4.06676C39.2018 3.80824 39.8646 3.67898 40.6071 3.67898C41.3627 3.67898 42.0223 3.80824 42.5858 4.06676C43.1525 4.32528 43.5933 4.6849 43.9082 5.1456C44.2231 5.6063 44.3855 6.13991 44.3954 6.74645H42.3322ZM45.9826 14V3.81818H52.8434V5.59304H48.1353V8.01918H52.4904V9.79403H48.1353V12.2251H52.8633V14H45.9826ZM54.5549 14V3.81818H58.5719C59.3442 3.81818 60.0021 3.96567 60.5456 4.26065C61.0892 4.55232 61.5035 4.95833 61.7885 5.47869C62.0769 5.99574 62.2211 6.59233 62.2211 7.26847C62.2211 7.9446 62.0752 8.54119 61.7836 9.05824C61.4919 9.57528 61.0693 9.97798 60.5158 10.2663C59.9656 10.5547 59.2994 10.6989 58.5172 10.6989H55.9569V8.97372H58.1692C58.5835 8.97372 58.9249 8.90246 59.1934 8.75994C59.4651 8.61411 59.6673 8.41359 59.7999 8.15838C59.9358 7.89986 60.0037 7.60322 60.0037 7.26847C60.0037 6.9304 59.9358 6.63542 59.7999 6.38352C59.6673 6.12831 59.4651 5.93111 59.1934 5.7919C58.9216 5.64938 58.5769 5.57812 58.1593 5.57812H56.7076V14H54.5549ZM32.8849 31V20.8182H35.0376V29.2251H39.4027V31H32.8849ZM49.7884 25.9091C49.7884 27.0194 49.5779 27.964 49.157 28.7429C48.7393 29.5218 48.1693 30.1167 47.4467 30.5277C46.7275 30.9354 45.9188 31.1392 45.0206 31.1392C44.1158 31.1392 43.3037 30.9337 42.5845 30.5227C41.8653 30.1117 41.2969 29.5168 40.8793 28.7379C40.4616 27.959 40.2528 27.0161 40.2528 25.9091C40.2528 24.7988 40.4616 23.8542 40.8793 23.0753C41.2969 22.2964 41.8653 21.7031 42.5845 21.2955C43.3037 20.8845 44.1158 20.679 45.0206 20.679C45.9188 20.679 46.7275 20.8845 47.4467 21.2955C48.1693 21.7031 48.7393 22.2964 49.157 23.0753C49.5779 23.8542 49.7884 24.7988 49.7884 25.9091ZM47.6058 25.9091C47.6058 25.1899 47.4981 24.5833 47.2827 24.0895C47.0705 23.5956 46.7706 23.2211 46.3828 22.9659C45.995 22.7107 45.541 22.5831 45.0206 22.5831C44.5002 22.5831 44.0462 22.7107 43.6584 22.9659C43.2706 23.2211 42.969 23.5956 42.7536 24.0895C42.5414 24.5833 42.4354 25.1899 42.4354 25.9091C42.4354 26.6283 42.5414 27.2348 42.7536 27.7287C42.969 28.2225 43.2706 28.5971 43.6584 28.8523C44.0462 29.1075 44.5002 29.2351 45.0206 29.2351C45.541 29.2351 45.995 29.1075 46.3828 28.8523C46.7706 28.5971 47.0705 28.2225 47.2827 27.7287C47.4981 27.2348 47.6058 26.6283 47.6058 25.9091ZM58.1344 24.1094C58.0648 23.8674 57.967 23.6536 57.8411 23.468C57.7151 23.2791 57.561 23.12 57.3787 22.9908C57.1998 22.8582 56.9943 22.7571 56.7623 22.6875C56.5336 22.6179 56.28 22.5831 56.0016 22.5831C55.4812 22.5831 55.0239 22.7124 54.6294 22.9709C54.2383 23.2294 53.9334 23.6056 53.7147 24.0994C53.4959 24.59 53.3865 25.1899 53.3865 25.8991C53.3865 26.6084 53.4943 27.2116 53.7097 27.7088C53.9251 28.206 54.2301 28.5855 54.6245 28.8473C55.0189 29.1058 55.4846 29.2351 56.0215 29.2351C56.5087 29.2351 56.9247 29.1489 57.2694 28.9766C57.6174 28.8009 57.8825 28.554 58.0648 28.2358C58.2504 27.9176 58.3432 27.5414 58.3432 27.1072L58.7807 27.1719H56.1557V25.5511H60.4164V26.8338C60.4164 27.7287 60.2275 28.4976 59.8496 29.1406C59.4718 29.7803 58.9514 30.2741 58.2885 30.6222C57.6257 30.9669 56.8667 31.1392 56.0115 31.1392C55.057 31.1392 54.2185 30.9287 53.4959 30.5078C52.7734 30.0836 52.2099 29.482 51.8056 28.7031C51.4045 27.9209 51.204 26.9929 51.204 25.919C51.204 25.0937 51.3233 24.358 51.562 23.7116C51.8039 23.062 52.142 22.5118 52.5762 22.0611C53.0104 21.6103 53.5158 21.2673 54.0925 21.032C54.6692 20.7966 55.294 20.679 55.9668 20.679C56.5435 20.679 57.0804 20.7635 57.5776 20.9325C58.0748 21.0982 58.5156 21.3336 58.9 21.6385C59.2878 21.9434 59.6043 22.3063 59.8496 22.7273C60.0949 23.1449 60.2523 23.6056 60.3219 24.1094H58.1344ZM62.0334 31V20.8182H68.8942V22.593H64.1861V25.0192H68.5412V26.794H64.1861V29.2251H68.9141V31H62.0334ZM70.6056 20.8182H73.2605L76.0645 27.6591H76.1838L78.9877 20.8182H81.6426V31H79.5545V24.3729H79.47L76.835 30.9503H75.4132L72.7782 24.348H72.6937V31H70.6056V20.8182ZM83.4162 31V20.8182H90.277V22.593H85.5689V25.0192H89.924V26.794H85.5689V29.2251H90.2969V31H83.4162ZM100.505 20.8182V31H98.6454L94.2157 24.5916H94.1412V31H91.9885V20.8182H93.8777L98.2725 27.2216H98.362V20.8182H100.505ZM101.896 22.593V20.8182H110.258V22.593H107.141V31H105.013V22.593H101.896Z" fill="black"/>
<path d="M12 17C12.55 17 13.0208 16.8042 13.4125 16.4125C13.8042 16.0208 14 15.55 14 15C14 14.45 13.8042 13.9792 13.4125 13.5875C13.0208 13.1958 12.55 13 12 13C11.45 13 10.9792 13.1958 10.5875 13.5875C10.1958 13.9792 10 14.45 10 15C10 15.55 10.1958 16.0208 10.5875 16.4125C10.9792 16.8042 11.45 17 12 17ZM12 24.35C14.0333 22.4833 15.5417 20.7875 16.525 19.2625C17.5083 17.7375 18 16.3833 18 15.2C18 13.3833 17.4208 11.8958 16.2625 10.7375C15.1042 9.57917 13.6833 9 12 9C10.3167 9 8.89583 9.57917 7.7375 10.7375C6.57917 11.8958 6 13.3833 6 15.2C6 16.3833 6.49167 17.7375 7.475 19.2625C8.45833 20.7875 9.96667 22.4833 12 24.35ZM12 27C9.31667 24.7167 7.3125 22.5958 5.9875 20.6375C4.6625 18.6792 4 16.8667 4 15.2C4 12.7 4.80417 10.7083 6.4125 9.225C8.02083 7.74167 9.88333 7 12 7C14.1167 7 15.9792 7.74167 17.5875 9.225C19.1958 10.7083 20 12.7 20 15.2C20 16.8667 19.3375 18.6792 18.0125 20.6375C16.6875 22.5958 14.6833 24.7167 12 27Z" fill="black"/>
</svg>
